# xmcd
#
# Track frame offsets:
# 150
# 11335
# 32305
# 51884
# 68063
# 83252
# 93459
# 101597
# 108274
# 113992
# 142892
# 161720
#
# Disc length: 2648 seconds
#
# Revision: 0
# Processed by: cddbd v1.5.2PL0 Copyright (c) Steve Scherf et al.
# Submitted via: Audion 3.0.2 (http://www.panic.com/audion/)
#
DISCID=860a560c
DTITLE=Art of Noise - Bashful
DYEAR=1900
DGENRE=
TTITLE0=Beat Box (One Made Earlier)
TTITLE1=Who's Afraid (Of Scale)
TTITLE2=A Time To Clear (Up
TTITLE3=A Time To Hear (Who's Listening?)
TTITLE4=Resin
TTITLE5=Resonance
TTITLE6=The Subject Has Moved Left
TTITLE7=Memory Loss
TTITLE8=Structure
TTITLE9=Closer (To The Edit)
TTITLE10=Beat Box (Diversion) 
TTITLE11=Beat Box (Diverted)
EXTD=
EXTT0=
EXTT1=
EXTT2=
EXTT3=
EXTT4=
EXTT5=
EXTT6=
EXTT7=
EXTT8=
EXTT9=
EXTT10=
EXTT11=
PLAYORDER=
